<svg width="100" height="100" viewBox="0 0 100 100" fill="none" xmlns="http://www.w3.org/2000/svg">
<path d="M50 0C22.4305 0 0 22.4305 0 50C0 77.5695 22.4305 100 50 100C77.5695 100 100 77.5695 100 50C100 22.4305 77.5695 0 50 0ZM50 95.8334C24.7273 95.8334 4.1666 75.2727 4.1666 50C4.1666 24.7273 24.7273 4.1666 50 4.1666C75.2727 4.1666 95.8334 24.7273 95.8334 50C95.8334 75.2727 75.2727 95.8334 50 95.8334Z" fill="#999292"/>
<path d="M70.223 29.7769C69.4092 28.963 68.0908 28.963 67.2771 29.7769L50 47.0541L32.723 29.7771C31.9092 28.9632 30.5908 28.9632 29.7771 29.7771C28.9633 30.591 28.9633 31.9093 29.7771 32.723L47.0541 50L29.7771 67.2769C28.9633 68.0908 28.9633 69.4091 29.7771 70.2228C30.184 70.6296 30.7172 70.8332 31.2502 70.8332C31.7832 70.8332 32.3162 70.6296 32.7232 70.2228L50 52.9459L67.277 70.2228C67.6838 70.6296 68.217 70.8332 68.75 70.8332C69.283 70.8332 69.816 70.6296 70.223 70.2228C71.0369 69.4089 71.0369 68.0906 70.223 67.2769L52.9459 50L70.2228 32.723C71.0367 31.9091 71.0367 30.5908 70.223 29.7769Z" fill="#999292"/>
</svg>
