<svg width="50" height="50" viewBox="0 0 50 50" fill="none" xmlns="http://www.w3.org/2000/svg">
<g clip-path="url(#clip0)">
<path d="M43.1344 21.9544C42.6562 21.2239 41.5002 21.4679 41.3313 22.3129C41.2483 22.7283 41.4474 23.1648 41.8168 23.3733C42.1865 23.582 42.6609 23.5302 42.9757 23.2445C43.3328 22.9204 43.4091 22.3553 43.1344 21.9544Z" fill="black"/>
<path d="M7 39.747C7 40.5449 7.31073 41.2949 7.87484 41.859L15.141 49.1252C15.7053 49.6893 16.4552 50 17.253 50H40.7364C42.3833 50 43.7232 48.6601 43.7232 47.0132V26.4946C43.7232 25.2162 41.732 25.2144 41.732 26.4946V47.0132C41.732 47.5622 41.2854 48.0088 40.7364 48.0088H17.5526V42.3915C17.5526 40.7446 16.2127 39.4047 14.5658 39.4047H8.99121V17.4027H41.732V18.4505C41.732 19.7289 43.7232 19.7308 43.7232 18.4505V2.98681C43.7232 1.33988 42.3833 0 40.7364 0H9.98681C8.33988 0 7 1.33988 7 2.98681V39.747ZM15.5614 42.3915V46.7295L10.2277 41.3959H14.5658C15.1148 41.3959 15.5614 41.8425 15.5614 42.3915ZM8.99121 15.4114V2.98681C8.99121 2.43783 9.43783 1.99121 9.98681 1.99121H40.7364C41.2854 1.99121 41.732 2.43783 41.732 2.98681V15.4114H8.99121Z" fill="black"/>
<path d="M17.6287 5.81322C18.3745 5.81322 18.7605 6.2034 18.7864 6.98395C18.8523 8.01599 20.8158 7.76002 20.8158 6.6327C20.8158 5.82616 20.51 5.19326 19.8987 4.73339C18.6511 3.79573 16.4989 3.75212 15.2937 4.78546C14.7168 5.27977 14.4286 6.05605 14.4286 7.11397V10.5613C14.4286 11.6195 14.7168 12.3955 15.2937 12.8899C16.5065 13.9295 18.6663 13.8821 19.8987 12.9028C20.5101 12.4173 20.8158 11.7538 20.8158 10.9125C20.8158 10.5397 20.7377 10.2861 20.5816 10.1515C20.1375 9.76915 18.8488 9.8257 18.7864 10.5613C18.7153 11.3039 18.4696 11.8621 17.6417 11.8621C16.8525 11.8621 16.4579 11.4285 16.4579 10.5613V7.11407C16.4579 6.2469 16.8482 5.81322 17.6287 5.81322Z" fill="black"/>
<path d="M27.3592 8.55153C26.7527 8.10988 26.068 7.75455 25.3688 7.48484C24.0477 6.97549 24.099 5.73517 25.603 5.73517C26.0105 5.73517 26.3836 5.81771 26.7218 5.98228C28.2063 6.70578 28.7655 4.56076 27.1446 4.16052C25.8528 3.84163 24.3745 3.86065 23.2485 4.64897C22.1704 5.40363 21.9593 7.10333 22.6956 8.16783C22.9774 8.57563 23.3221 8.88984 23.7298 9.11096C24.4691 9.51209 25.3028 9.78548 25.9738 10.3013C26.9356 11.0417 26.0779 11.9144 25.1348 11.9144C24.6646 11.9144 24.1459 11.7354 23.8014 11.407C22.4397 10.1131 21.3497 12.2604 22.9753 13.1632C23.5998 13.5101 24.3325 13.6836 25.1738 13.6836C26.145 13.6836 26.93 13.4346 27.5284 12.9364C28.1268 12.4382 28.426 11.742 28.426 10.8477C28.4259 9.9852 28.0737 9.07213 27.3592 8.55153Z" fill="black"/>
<path d="M34.7879 8.55153C34.1814 8.10988 33.4967 7.75455 32.7976 7.48484C31.4764 6.97549 31.5277 5.73517 33.0317 5.73517C33.4392 5.73517 33.8123 5.81771 34.1505 5.98228C35.635 6.70578 36.1943 4.56076 34.5733 4.16052C33.2815 3.84163 31.8032 3.86065 30.6772 4.64897C29.5991 5.40363 29.388 7.10333 30.1244 8.16783C30.4061 8.57563 30.7508 8.88984 31.1585 9.11096C31.8978 9.51209 32.7314 9.78548 33.4025 10.3013C34.3643 11.0417 33.5066 11.9144 32.5635 11.9144C32.0933 11.9144 31.5747 11.7354 31.2301 11.407C29.8684 10.1131 28.7784 12.2604 30.404 13.1632C31.0285 13.5101 31.7612 13.6836 32.6025 13.6836C33.5737 13.6836 34.3588 13.4346 34.9571 12.9364C35.5555 12.4382 35.8548 11.742 35.8548 10.8477C35.8547 9.9852 35.5024 9.07213 34.7879 8.55153Z" fill="black"/>
<path d="M20.375 28.7205V26.9261C20.375 26.6227 21.0836 26.2926 21.2854 26.1548C22.3409 25.4337 21.2191 23.7883 20.1621 24.5107C19.2752 25.1165 18.3839 25.7151 18.3839 26.9261C18.3839 27.7563 18.725 29.6986 17.3971 29.6986C16.1176 29.6986 16.1265 31.6899 17.4057 31.6899C17.9306 31.6899 18.3838 32.1428 18.3838 32.6679V34.4623C18.3838 35.5343 19.5596 37.0514 20.7228 37.0514C21.6808 37.0514 22.0754 35.7733 21.2854 35.2336C19.6993 34.1499 20.8541 32.279 19.7582 30.8561C19.7153 30.8004 19.6705 30.7464 19.6239 30.6942C20.1014 30.1583 20.375 29.4382 20.375 28.7205Z" fill="black"/>
<path d="M29.7806 32.6678V34.4622C29.7806 34.7656 29.072 35.0957 28.8702 35.2336C28.0802 35.7733 28.4748 37.0514 29.4327 37.0514C29.9293 37.0514 30.3938 36.6043 30.7805 36.3401C31.4011 35.9161 31.7718 35.214 31.7718 34.4623V32.6679C31.7718 32.1356 32.2305 31.6899 32.7585 31.6899C34.0381 31.6899 34.0291 29.6987 32.75 29.6987C31.3661 29.6987 31.7719 27.7668 31.7719 26.9261C31.7719 26.1743 31.4013 25.4723 30.7806 25.0484C30.1276 24.6023 29.0679 23.7936 28.5421 24.9154C27.9169 26.2488 29.7806 26.0687 29.7806 26.9261C29.7806 28.2211 29.5955 29.6458 30.5317 30.6943C30.0538 31.2293 29.7806 31.9506 29.7806 32.6678Z" fill="black"/>
</g>
<defs>
<clipPath id="clip0">
<rect width="50" height="50" fill="white"/>
</clipPath>
</defs>
</svg>
