<svg width="50" height="50" viewBox="0 0 50 50" fill="none" xmlns="http://www.w3.org/2000/svg">
<path d="M16.4252 40.6662C14.1555 35.6786 12.2712 30.475 9.90324 25.5449C9.89703 25.5325 9.8898 25.5241 9.88358 25.5123C12.4445 20.4609 14.1555 14.9598 16.2917 9.66824C16.6176 8.86101 15.9064 8.13233 15.3539 8.29259C15.3472 8.292 15.342 8.28967 15.3358 8.28908C13.4743 8.13771 11.6075 8.12497 9.74485 7.98342C9.38844 7.95618 9.15936 8.16097 9.05077 8.43987C8.9535 8.50988 8.86304 8.6069 8.7896 8.74261C5.90797 14.0401 3.22558 19.4806 0.138092 24.6279C0.0145349 24.8348 -0.0175511 25.0375 0.00832146 25.2209C-0.0175511 25.4042 0.0145349 25.6067 0.138092 25.8132C3.22558 30.9604 5.90797 36.401 8.79001 41.6979C8.86345 41.8337 8.95401 41.9317 9.05118 42.0005C9.15976 42.2801 9.38895 42.4849 9.74526 42.4569C11.6074 42.3156 13.4741 42.3032 15.3362 42.1513C15.4597 42.1412 15.5684 42.105 15.6625 42.0492C16.1966 42.0558 16.7547 41.3898 16.4252 40.6662ZM10.0786 40.6045C7.29225 35.4738 4.68483 30.2162 1.71224 25.2208C4.68432 20.2257 7.29175 14.9677 10.0786 9.83703C11.5166 9.93498 12.9576 9.97145 14.3961 10.059C12.4259 15.1158 10.7454 20.3161 8.25799 25.0865C8.02157 25.5388 8.1654 25.9708 8.44267 26.2237C8.45968 26.305 8.48402 26.3864 8.52385 26.4695C10.7004 31.0013 12.472 35.7616 14.5058 40.3747C13.0306 40.468 11.5533 40.5035 10.0786 40.6045Z" fill="black"/>
<path d="M49.8615 24.6278C46.774 19.4805 44.0927 14.04 41.2096 8.74321C41.1362 8.6075 41.0462 8.5099 40.9479 8.44047C40.8394 8.16088 40.6102 7.95667 40.2539 7.98402C38.3918 8.12557 36.5251 8.13773 34.6635 8.28969C34.6567 8.29027 34.6515 8.29261 34.6453 8.29319C34.0928 8.13294 33.3811 8.8615 33.707 9.66885C35.8438 14.9604 37.5548 20.4609 40.1156 25.5129C40.109 25.5248 40.1017 25.5331 40.0961 25.5455C37.7291 30.4744 35.8448 35.6786 33.5751 40.6662C33.2457 41.3898 33.8043 42.0564 34.3375 42.0504C34.4316 42.1063 34.5397 42.1424 34.6639 42.1525C36.525 42.3038 38.3916 42.3169 40.2543 42.4581C40.6107 42.4861 40.8398 42.2807 40.9483 42.0018C41.0466 41.9323 41.1362 41.835 41.21 41.6996C44.0927 36.4016 46.7746 30.9623 49.8619 25.8145C49.9861 25.6078 50.0176 25.4055 49.9917 25.2221C50.0173 25.0374 49.9857 24.8347 49.8615 24.6278ZM39.9222 40.6045C38.4471 40.5037 36.9698 40.468 35.4945 40.3748C37.5284 35.7612 39.3003 31.0009 41.4765 26.4696C41.5163 26.3865 41.5407 26.3053 41.5577 26.2238C41.835 25.971 41.9788 25.539 41.7423 25.0866C39.2554 20.3162 37.5743 15.1158 35.6041 10.0591C37.0426 9.97159 38.4837 9.935 39.9222 9.83716C42.7081 14.9684 45.3154 20.2258 48.2881 25.2209C45.3154 30.2155 42.7081 35.4738 39.9222 40.6045Z" fill="black"/>
<path d="M32.0072 0.193897C31.9752 0.188871 31.9451 0.180572 31.9105 0.179286L27.2735 0.000681102C26.7071 -0.0212938 26.4231 0.492195 26.4298 1.00229C24.9474 7.49402 23.7185 14.062 22.4968 20.6237C21.2699 27.2205 20.0347 33.816 18.6205 40.3641C18.2254 42.1934 17.8084 44.0181 17.3672 45.8337C17.1825 46.5922 17.0744 47.425 16.7392 48.1212C16.4174 48.7919 15.9561 49.9411 17.0863 49.9773C19.0114 50.0402 20.933 49.9613 22.8577 49.877C22.8975 49.8752 22.9337 49.8664 22.9709 49.8598C23.333 49.9186 23.7101 49.7329 23.8316 49.2041C27.4524 33.4535 30.3287 17.4489 32.9692 1.4467C33.0939 0.686229 32.511 0.171805 32.0072 0.193897ZM22.3684 47.964C21.1047 48.0174 19.8422 48.0625 18.5781 48.0625C22.3291 32.8765 24.5285 17.2407 27.9562 1.96358L31.1543 2.08701C28.6064 17.4588 25.8267 32.8266 22.3684 47.964Z" fill="black"/>
</svg>
