<svg width="42" height="50" viewBox="0 0 42 50" fill="none" xmlns="http://www.w3.org/2000/svg">
<path d="M20.8792 10.7771C13.8024 10.7771 8.02069 16.5588 8.02069 23.6356C8.02069 27.3358 9.63956 30.8974 12.3685 33.3025C14.4037 35.3377 14.2187 39.6855 14.1724 39.7318C14.1724 39.963 14.2187 40.1481 14.4037 40.3331C14.5424 40.4718 14.7737 40.5643 14.9587 40.5643H26.7533C26.9846 40.5643 27.1696 40.4718 27.3084 40.3331C27.4471 40.1943 27.5397 39.963 27.5397 39.7318C27.5397 39.6855 27.3084 35.3377 29.3435 33.3025C29.3898 33.2563 29.436 33.21 29.4823 33.1638C32.165 30.7123 33.7376 27.2433 33.7376 23.6356C33.7376 16.5588 27.9559 10.7771 20.8792 10.7771ZM28.2797 32.0999C28.2335 32.1462 28.1409 32.2387 28.1409 32.285C26.3371 34.2276 26.0133 37.4191 25.967 38.9455H15.745C15.6988 37.4191 15.375 34.0888 13.4323 32.0999C10.9809 29.9723 9.54705 26.8733 9.54705 23.5893C9.54705 17.3451 14.5887 12.3035 20.8329 12.3035C27.0771 12.3035 32.1187 17.3451 32.1187 23.5893C32.1187 26.8733 30.7311 29.9723 28.2797 32.0999Z" fill="black"/>
<path d="M20.8329 14.061C20.4167 14.061 20.0466 14.4311 20.0466 14.8473C20.0466 15.2636 20.4167 15.6337 20.8329 15.6337C25.5045 15.6337 29.2511 19.4264 29.2511 24.0518C29.2511 24.4681 29.6211 24.8381 30.0374 24.8381C30.4537 24.8381 30.8237 24.4681 30.8237 24.0518C30.8699 18.5476 26.3834 14.061 20.8329 14.061Z" fill="black"/>
<path d="M25.9671 41.4431H15.6989C14.635 41.4431 13.7562 42.3219 13.7562 43.3858C13.7562 44.4496 14.635 45.3284 15.6989 45.3284H25.9209C27.031 45.2822 27.9098 44.4496 27.9098 43.3858C27.9098 42.3219 27.031 41.4431 25.9671 41.4431ZM25.9671 43.7095H15.6989C15.5139 43.7095 15.3288 43.5708 15.3288 43.3395C15.3288 43.1082 15.4676 42.9695 15.6989 42.9695H25.9209C26.1059 42.9695 26.2909 43.1082 26.2909 43.3395C26.2909 43.5708 26.1522 43.7095 25.9671 43.7095Z" fill="black"/>
<path d="M24.4407 46.1146H17.2252C16.1613 46.1146 15.2825 46.9934 15.2825 48.0573C15.2825 49.1211 16.1613 49.9999 17.2252 49.9999H24.4407C25.5045 49.9999 26.3834 49.1211 26.3834 48.0573C26.3834 46.9472 25.5045 46.1146 24.4407 46.1146ZM24.4407 48.381H17.2252C17.0402 48.381 16.8552 48.2423 16.8552 48.011C16.8552 47.7798 16.9939 47.641 17.2252 47.641H24.4407C24.6257 47.641 24.8107 47.7798 24.8107 48.011C24.8107 48.2423 24.6257 48.381 24.4407 48.381Z" fill="black"/>
<path d="M20.8329 6.93802C21.2955 6.93802 21.6192 6.568 21.6192 6.15171V0.786309C21.6192 0.370028 21.2492 0 20.8329 0C20.4167 0 20.0466 0.370028 20.0466 0.786309V6.15171C20.0466 6.568 20.4167 6.93802 20.8329 6.93802Z" fill="black"/>
<path d="M33.9226 3.97778C33.5526 3.70026 33.09 3.83902 32.8588 4.16279L29.8985 8.60313C29.621 8.97315 29.7135 9.48194 30.0836 9.71321C30.2223 9.80572 30.3611 9.85197 30.4998 9.85197C30.7774 9.85197 31.0086 9.71321 31.1474 9.48194L34.1076 5.04161C34.3851 4.71783 34.2926 4.20905 33.9226 3.97778Z" fill="black"/>
<path d="M11.4435 9.667C11.5823 9.667 11.721 9.62075 11.8598 9.52824C12.2298 9.29697 12.3223 8.78819 12.0911 8.41816L9.22336 3.93157C8.99209 3.56154 8.4833 3.46904 8.11327 3.7003C7.74325 3.93157 7.65074 4.44036 7.88201 4.81039L10.7497 9.29697C10.9347 9.5745 11.166 9.667 11.4435 9.667Z" fill="black"/>
<path d="M5.84684 14.5699L1.17524 12.0259C0.805212 11.8409 0.296423 11.9797 0.111409 12.3497C-0.119858 12.7197 0.0189023 13.2285 0.435184 13.4135L5.10678 15.9575C5.24554 16.0037 5.33805 16.05 5.47681 16.05C5.75433 16.05 6.03185 15.9112 6.17061 15.6337C6.35563 15.2637 6.21687 14.7549 5.84684 14.5699Z" fill="black"/>
<path d="M41.6008 12.3497C41.4157 11.9797 40.9069 11.8409 40.5369 12.0259L35.8191 14.5699C35.449 14.7549 35.3103 15.2637 35.4953 15.6337C35.634 15.9112 35.9116 16.05 36.1891 16.05C36.3279 16.05 36.4666 16.0037 36.5591 15.9575L41.277 13.4135C41.647 13.2285 41.7858 12.7197 41.6008 12.3497Z" fill="black"/>
</svg>
