<svg width="50" height="50" viewBox="0 0 50 50" fill="none" xmlns="http://www.w3.org/2000/svg">
<path d="M14.7816 27.4793C14.3351 27.4792 13.8985 27.6116 13.5271 27.8597C13.1558 28.1077 12.8663 28.4603 12.6954 28.8729C12.5244 29.2855 12.4797 29.7395 12.5668 30.1775C12.6539 30.6155 12.869 31.0179 13.1847 31.3336C13.5005 31.6494 13.9029 31.8645 14.3409 31.9516C14.7789 32.0387 15.2329 31.9939 15.6455 31.823C16.058 31.6521 16.4107 31.3626 16.6587 30.9913C16.9068 30.6199 17.0391 30.1833 17.0391 29.7367C17.0384 29.1382 16.8004 28.5644 16.3772 28.1412C15.954 27.718 15.3802 27.4799 14.7816 27.4793ZM14.7816 30.6274C14.6055 30.6274 14.4332 30.5753 14.2867 30.4775C14.1402 30.3796 14.026 30.2406 13.9585 30.0778C13.8911 29.9151 13.8734 29.736 13.9077 29.5632C13.942 29.3904 14.0268 29.2317 14.1513 29.1071C14.2759 28.9825 14.4346 28.8976 14.6074 28.8632C14.7801 28.8289 14.9592 28.8465 15.122 28.9139C15.2848 28.9813 15.4239 29.0954 15.5218 29.2419C15.6196 29.3884 15.6719 29.5606 15.6719 29.7367C15.6717 29.9728 15.5778 30.1992 15.4109 30.3661C15.244 30.5331 15.0177 30.627 14.7816 30.6274Z" fill="black"/>
<path d="M11.1445 40.7762C10.698 40.7762 10.2615 40.9086 9.89016 41.1567C9.51886 41.4048 9.22947 41.7574 9.05859 42.17C8.8877 42.5825 8.84298 43.0365 8.9301 43.4745C9.01722 43.9125 9.23226 44.3148 9.54802 44.6305C9.86378 44.9463 10.2661 45.1613 10.7041 45.2484C11.142 45.3356 11.596 45.2908 12.0086 45.12C12.4211 44.9491 12.7737 44.6597 13.0218 44.2884C13.2699 43.9171 13.4023 43.4806 13.4023 43.034C13.4017 42.4354 13.1636 41.8615 12.7404 41.4382C12.3171 41.0149 11.7431 40.7768 11.1445 40.7762ZM11.1445 43.9242C10.9684 43.9242 10.7962 43.872 10.6497 43.7741C10.5032 43.6762 10.3891 43.5371 10.3217 43.3743C10.2543 43.2116 10.2367 43.0325 10.271 42.8597C10.3054 42.6869 10.3903 42.5282 10.5149 42.4037C10.6395 42.2792 10.7982 42.1944 10.971 42.16C11.1438 42.1257 11.3229 42.1434 11.4856 42.2109C11.6484 42.2784 11.7874 42.3926 11.8852 42.5391C11.9831 42.6856 12.0352 42.8578 12.0352 43.034C12.0348 43.2701 11.9409 43.4964 11.7739 43.6633C11.607 43.8302 11.3806 43.924 11.1445 43.9242Z" fill="black"/>
<path d="M37.2434 19.4719C37.69 19.4718 38.1265 19.3393 38.4977 19.0912C38.8689 18.843 39.1583 18.4904 39.3291 18.0778C39.4999 17.6652 39.5446 17.2113 39.4574 16.7733C39.3703 16.3354 39.1552 15.9331 38.8394 15.6174C38.5236 15.3017 38.1213 15.0867 37.6834 14.9996C37.2454 14.9125 36.7915 14.9572 36.3789 15.1281C35.9664 15.299 35.6138 15.5884 35.3657 15.9597C35.1176 16.331 34.9852 16.7675 34.9852 17.2141C34.9859 17.8127 35.224 18.3867 35.6474 18.81C36.0707 19.2333 36.6448 19.4713 37.2434 19.4719ZM37.2434 16.3238C37.4196 16.3239 37.5918 16.3762 37.7382 16.4741C37.8846 16.5721 37.9987 16.7112 38.066 16.874C38.1334 17.0367 38.1509 17.2158 38.1165 17.3886C38.082 17.5613 37.9971 17.72 37.8725 17.8445C37.7479 17.969 37.5892 18.0537 37.4164 18.088C37.2436 18.1223 37.0646 18.1046 36.9019 18.0371C36.7391 17.9696 36.6001 17.8554 36.5023 17.7089C36.4045 17.5624 36.3523 17.3902 36.3524 17.2141C36.3527 16.9779 36.4467 16.7515 36.6138 16.5846C36.7808 16.4177 37.0073 16.3239 37.2434 16.3238Z" fill="black"/>
<path d="M45.1172 42.0898C44.7062 42.0897 44.2996 42.1737 43.9223 42.3367L37.8356 34.0523C38.3084 33.5054 38.5696 32.8071 38.5716 32.0841C38.5737 31.3611 38.3164 30.6613 37.8467 30.1118C37.3769 29.5622 36.7256 29.1993 36.0111 29.0888C35.2966 28.9784 34.5662 29.1277 33.9524 29.5097L27.2383 22.7433C27.5281 22.286 27.6897 21.7592 27.7061 21.218C27.7226 20.6768 27.5933 20.1411 27.3318 19.667C27.0704 19.1929 26.6863 18.7977 26.2198 18.5229C25.7533 18.248 25.2215 18.1036 24.6801 18.1047C24.5626 18.1052 24.4452 18.1125 24.3285 18.1265L21.6641 10.7031C22.0587 10.4502 22.3891 10.109 22.6293 9.70654C22.8695 9.30407 23.0128 8.85129 23.0481 8.38392C23.0834 7.91655 23.0095 7.44738 22.8324 7.01343C22.6554 6.57948 22.3799 6.19261 22.0277 5.88335C21.6755 5.57408 21.2563 5.35089 20.8031 5.23137C20.3499 5.11185 19.8751 5.09927 19.4162 5.19464C18.9573 5.29 18.5269 5.49069 18.1588 5.78087C17.7907 6.07106 17.4951 6.4428 17.2953 6.86677L7.90783 4.83787C7.89874 4.24134 7.71354 3.66082 7.37549 3.16924C7.03744 2.67766 6.56164 2.29698 6.00787 2.07502C5.4541 1.85306 4.84708 1.79974 4.2631 1.92175C3.67912 2.04377 3.14423 2.33567 2.72566 2.76079C2.30709 3.1859 2.02351 3.72525 1.91056 4.31105C1.79762 4.89685 1.86034 5.50297 2.09086 6.05323C2.32137 6.60349 2.70939 7.07334 3.20615 7.40373C3.70291 7.73411 4.28624 7.91029 4.88283 7.91013C4.93634 7.91013 4.98869 7.90466 5.04181 7.90193L8.09689 18.4898C7.65664 18.735 7.2846 19.0863 7.01454 19.5118C6.74448 19.9372 6.58497 20.4234 6.55047 20.9261C6.51597 21.4289 6.60759 21.9323 6.817 22.3906C7.02641 22.849 7.34698 23.2478 7.74962 23.5508C8.15225 23.8539 8.6242 24.0515 9.12261 24.1259C9.62103 24.2003 10.1301 24.149 10.6037 23.9767C11.0772 23.8044 11.5003 23.5166 11.8344 23.1393C12.1685 22.762 12.403 22.3073 12.5168 21.8164H21.7356C21.8431 22.2842 22.0607 22.7196 22.3703 23.0865C22.6798 23.4534 23.0725 23.7412 23.5155 23.9259C23.9586 24.1106 24.4393 24.1869 24.9178 24.1486C25.3963 24.1103 25.8588 23.9583 26.2668 23.7054L32.9824 30.473C32.6392 31.019 32.4794 31.6603 32.5264 32.3035C32.5734 32.9467 32.8248 33.558 33.2438 34.0482C33.6629 34.5384 34.2276 34.8819 34.8556 35.0284C35.4836 35.175 36.1421 35.117 36.7348 34.8629L42.8223 43.1484C42.374 43.6726 42.1184 44.3342 42.0977 45.0236C42.0771 45.713 42.2928 46.3888 42.7089 46.9388C43.1251 47.4888 43.7167 47.88 44.3858 48.0476C45.0548 48.2152 45.761 48.1491 46.3873 47.8602C47.0136 47.5713 47.5223 47.077 47.8291 46.4593C48.1359 45.8416 48.2224 45.1375 48.0741 44.4639C47.9258 43.7903 47.5518 43.1877 47.014 42.7559C46.4762 42.3241 45.8069 42.089 45.1172 42.0898ZM20.0285 6.49802C20.3569 6.49802 20.6779 6.59539 20.9509 6.77781C21.2239 6.96023 21.4367 7.21951 21.5623 7.52286C21.688 7.82622 21.7208 8.16002 21.6568 8.48206C21.5927 8.8041 21.4346 9.09991 21.2024 9.33209C20.9703 9.56426 20.6745 9.72238 20.3524 9.78644C20.0304 9.85049 19.6966 9.81762 19.3932 9.69196C19.0899 9.56631 18.8306 9.35352 18.6482 9.08051C18.4657 8.8075 18.3684 8.48653 18.3684 8.15818C18.3689 7.71804 18.544 7.29607 18.8552 6.98484C19.1664 6.67361 19.5884 6.49854 20.0285 6.49802ZM3.22267 4.88279C3.22267 4.55444 3.32004 4.23347 3.50246 3.96046C3.68488 3.68744 3.94416 3.47466 4.24751 3.349C4.55087 3.22335 4.88467 3.19047 5.20671 3.25453C5.52875 3.31859 5.82456 3.4767 6.05674 3.70888C6.28891 3.94106 6.44703 4.23687 6.51109 4.55891C6.57514 4.88095 6.54227 5.21475 6.41661 5.5181C6.29096 5.82146 6.07817 6.08074 5.80516 6.26316C5.53215 6.44558 5.21118 6.54294 4.88283 6.54294C4.44269 6.54243 4.02072 6.36735 3.70949 6.05613C3.39826 5.7449 3.22319 5.32293 3.22267 4.88279ZM6.35627 7.52498C6.90676 7.21565 7.34743 6.74277 7.6172 6.17185L17.0035 8.2031C17.0074 8.62685 17.1006 9.04501 17.2771 9.43025C17.4537 9.81549 17.7095 10.1591 18.028 10.4387C18.3464 10.7183 18.7203 10.9275 19.1251 11.0527C19.53 11.1779 19.9567 11.2162 20.3774 11.1652L23.0438 18.5906C22.3819 19.0169 21.9119 19.684 21.7332 20.4508H12.5172C12.3623 19.785 11.9869 19.1912 11.4519 18.7657C10.917 18.3402 10.2539 18.1081 9.57033 18.107C9.51681 18.107 9.46447 18.1125 9.41135 18.1152L6.35627 7.52498ZM9.57033 22.7922C9.24198 22.7922 8.92101 22.6948 8.648 22.5124C8.37499 22.33 8.1622 22.0707 8.03654 21.7673C7.91089 21.464 7.87802 21.1302 7.94207 20.8081C8.00613 20.4861 8.16425 20.1903 8.39642 19.9581C8.6286 19.7259 8.92441 19.5678 9.24645 19.5037C9.56849 19.4397 9.90229 19.4726 10.2056 19.5982C10.509 19.7239 10.7683 19.9367 10.9507 20.2097C11.1331 20.4827 11.2305 20.8037 11.2305 21.132C11.23 21.5721 11.0549 21.9941 10.7437 22.3053C10.4324 22.6166 10.0105 22.7916 9.57033 22.7922ZM23.0199 21.1328C23.0199 20.8044 23.1173 20.4835 23.2997 20.2105C23.4821 19.9374 23.7414 19.7247 24.0448 19.599C24.3481 19.4734 24.6819 19.4405 25.004 19.5045C25.326 19.5686 25.6218 19.7267 25.854 19.9589C26.0862 20.1911 26.2443 20.4869 26.3084 20.8089C26.3724 21.1309 26.3395 21.4647 26.2139 21.7681C26.0882 22.0715 25.8754 22.3307 25.6024 22.5132C25.3294 22.6956 25.0084 22.7929 24.6801 22.7929C24.24 22.7924 23.818 22.6174 23.5068 22.3061C23.1955 21.9949 23.0205 21.5729 23.0199 21.1328ZM33.8828 32.0804C33.8828 31.7521 33.9802 31.4311 34.1626 31.1581C34.345 30.8851 34.6043 30.6723 34.9077 30.5467C35.211 30.421 35.5448 30.3881 35.8669 30.4522C36.1889 30.5162 36.4847 30.6744 36.7169 30.9065C36.9491 31.1387 37.1072 31.4345 37.1712 31.7566C37.2353 32.0786 37.2024 32.4124 37.0768 32.7158C36.9511 33.0191 36.7383 33.2784 36.4653 33.4608C36.1923 33.6432 35.8713 33.7406 35.543 33.7406C35.1028 33.7401 34.6809 33.565 34.3697 33.2538C34.0584 32.9426 33.8834 32.5206 33.8828 32.0804ZM45.1172 46.7773C44.7889 46.7773 44.4679 46.68 44.1949 46.4975C43.9219 46.3151 43.7091 46.0558 43.5834 45.7525C43.4578 45.4491 43.4249 45.1153 43.489 44.7933C43.553 44.4712 43.7111 44.1754 43.9433 43.9433C44.1755 43.7111 44.4713 43.553 44.7933 43.4889C45.1154 43.4248 45.4492 43.4577 45.7525 43.5834C46.0559 43.709 46.3152 43.9218 46.4976 44.1948C46.68 44.4678 46.7774 44.7888 46.7774 45.1172C46.7768 45.5573 46.6018 45.9793 46.2905 46.2905C45.9793 46.6017 45.5574 46.7768 45.1172 46.7773Z" fill="black"/>
<path d="M26.1719 39.6043H25.6836V39.116C25.6836 38.9347 25.6116 38.7609 25.4834 38.6327C25.3552 38.5045 25.1813 38.4324 25 38.4324C24.8187 38.4324 24.6448 38.5045 24.5166 38.6327C24.3884 38.7609 24.3164 38.9347 24.3164 39.116V39.6043H23.8281C23.6468 39.6043 23.4729 39.6763 23.3448 39.8045C23.2166 39.9327 23.1445 40.1066 23.1445 40.2879C23.1445 40.4692 23.2166 40.6431 23.3448 40.7713C23.4729 40.8995 23.6468 40.9715 23.8281 40.9715H24.3164V41.4598C24.3164 41.6411 24.3884 41.815 24.5166 41.9432C24.6448 42.0713 24.8187 42.1434 25 42.1434C25.1813 42.1434 25.3552 42.0713 25.4834 41.9432C25.6116 41.815 25.6836 41.6411 25.6836 41.4598V40.9715H26.1719C26.3532 40.9715 26.527 40.8995 26.6552 40.7713C26.7834 40.6431 26.8555 40.4692 26.8555 40.2879C26.8555 40.1066 26.7834 39.9327 26.6552 39.8045C26.527 39.6763 26.3532 39.6043 26.1719 39.6043Z" fill="black"/>
<path d="M36.0715 6.73828H36.5598V7.22656C36.5598 7.40786 36.6318 7.58174 36.76 7.70994C36.8882 7.83813 37.0621 7.91016 37.2434 7.91016C37.4247 7.91016 37.5986 7.83813 37.7268 7.70994C37.855 7.58174 37.927 7.40786 37.927 7.22656V6.73828H38.4153C38.5966 6.73828 38.7705 6.66626 38.8987 6.53806C39.0269 6.40986 39.0989 6.23599 39.0989 6.05469C39.0989 5.87339 39.0269 5.69951 38.8987 5.57131C38.7705 5.44311 38.5966 5.37109 38.4153 5.37109H37.927V4.88281C37.927 4.70151 37.855 4.52764 37.7268 4.39944C37.5986 4.27124 37.4247 4.19922 37.2434 4.19922C37.0621 4.19922 36.8882 4.27124 36.76 4.39944C36.6318 4.52764 36.5598 4.70151 36.5598 4.88281V5.37109H36.0715C35.8902 5.37109 35.7164 5.44311 35.5882 5.57131C35.46 5.69951 35.3879 5.87339 35.3879 6.05469C35.3879 6.23599 35.46 6.40986 35.5882 6.53806C35.7164 6.66626 35.8902 6.73828 36.0715 6.73828Z" fill="black"/>
<path d="M42.3711 29.3613H42.8594V29.8495C42.8594 30.0308 42.9314 30.2047 43.0596 30.3329C43.1878 30.4611 43.3617 30.5331 43.543 30.5331C43.7243 30.5331 43.8981 30.4611 44.0263 30.3329C44.1545 30.2047 44.2266 30.0308 44.2266 29.8495V29.3613H44.7148C44.8961 29.3613 45.07 29.2892 45.1982 29.161C45.3264 29.0328 45.3984 28.859 45.3984 28.6777C45.3984 28.4964 45.3264 28.3225 45.1982 28.1943C45.07 28.0661 44.8961 27.9941 44.7148 27.9941H44.2266V27.5058C44.2266 27.3245 44.1545 27.1506 44.0263 27.0224C43.8981 26.8942 43.7243 26.8222 43.543 26.8222C43.3617 26.8222 43.1878 26.8942 43.0596 27.0224C42.9314 27.1506 42.8594 27.3245 42.8594 27.5058V27.9941H42.3711C42.1898 27.9941 42.0159 28.0661 41.8877 28.1943C41.7595 28.3225 41.6875 28.4964 41.6875 28.6777C41.6875 28.859 41.7595 29.0328 41.8877 29.161C42.0159 29.2892 42.1898 29.3613 42.3711 29.3613Z" fill="black"/>
</svg>
