<svg width="42" height="50" viewBox="0 0 42 50" fill="none" xmlns="http://www.w3.org/2000/svg">
<g clip-path="url(#clip0)">
<path d="M26.1462 1.79131C26.0736 1.71876 25.9875 1.66122 25.8927 1.62196C25.7979 1.5827 25.6963 1.5625 25.5938 1.5625H3.71875C2.26885 1.56413 0.878795 2.14082 -0.146441 3.16606C-1.17168 4.1913 -1.74837 5.58135 -1.75 7.03125V42.9688C-1.74837 44.4187 -1.17168 45.8087 -0.146441 46.8339C0.878795 47.8592 2.26885 48.4359 3.71875 48.4375H30.2812C31.7312 48.4359 33.1212 47.8592 34.1464 46.8339C35.1717 45.8087 35.7484 44.4187 35.75 42.9688V11.7188C35.75 11.6162 35.7298 11.5146 35.6905 11.4198C35.6513 11.325 35.5937 11.2389 35.5212 11.1663L26.1462 1.79131ZM26.375 4.22979L33.0827 10.9375H30.2812C29.2456 10.9363 28.2527 10.5244 27.5204 9.7921C26.7881 9.05979 26.3762 8.0669 26.375 7.03125V4.22979ZM3.71875 3.125H24.8125V7.03125C24.8141 8.48115 25.3908 9.8712 26.4161 10.8964C27.4413 11.9217 28.8313 12.4984 30.2812 12.5H34.1875V34.375H-0.1875V7.03125C-0.186337 5.9956 0.225587 5.00271 0.957899 4.2704C1.69021 3.53809 2.6831 3.12616 3.71875 3.125ZM30.2812 46.875H3.71875C2.6831 46.8738 1.69021 46.4619 0.957899 45.7296C0.225587 44.9973 -0.186337 44.0044 -0.1875 42.9688V35.9375H34.1875V42.9688C34.1863 44.0044 33.7744 44.9973 33.0421 45.7296C32.3098 46.4619 31.3169 46.8738 30.2812 46.875Z" fill="black"/>
<path d="M15.4375 37.5C15.2303 37.5 15.0316 37.5823 14.8851 37.7288C14.7386 37.8753 14.6562 38.074 14.6562 38.2812V42.9688C14.6562 43.176 14.5739 43.3747 14.4274 43.5212C14.2809 43.6677 14.0822 43.75 13.875 43.75C13.6678 43.75 13.4691 43.6677 13.3226 43.5212C13.1761 43.3747 13.0938 43.176 13.0938 42.9688C13.0938 42.7615 13.0114 42.5628 12.8649 42.4163C12.7184 42.2698 12.5197 42.1875 12.3125 42.1875C12.1053 42.1875 11.9066 42.2698 11.7601 42.4163C11.6136 42.5628 11.5312 42.7615 11.5312 42.9688C11.5312 43.5904 11.7782 44.1865 12.2177 44.626C12.6573 45.0656 13.2534 45.3125 13.875 45.3125C14.4966 45.3125 15.0927 45.0656 15.5323 44.626C15.9718 44.1865 16.2188 43.5904 16.2188 42.9688V38.2812C16.2188 38.074 16.1364 37.8753 15.9899 37.7288C15.8434 37.5823 15.6447 37.5 15.4375 37.5Z" fill="black"/>
<path d="M20.125 39.0625H21.6875C21.8947 39.0625 22.0934 38.9802 22.2399 38.8337C22.3864 38.6872 22.4688 38.4885 22.4688 38.2812C22.4688 38.074 22.3864 37.8753 22.2399 37.7288C22.0934 37.5823 21.8947 37.5 21.6875 37.5H20.125C19.5034 37.5 18.9073 37.7469 18.4677 38.1865C18.0282 38.626 17.7812 39.2221 17.7812 39.8438C17.7812 40.4654 18.0282 41.0615 18.4677 41.501C18.9073 41.9406 19.5034 42.1875 20.125 42.1875C20.3322 42.1875 20.5309 42.2698 20.6774 42.4163C20.8239 42.5628 20.9062 42.7615 20.9062 42.9688C20.9062 43.176 20.8239 43.3747 20.6774 43.5212C20.5309 43.6677 20.3322 43.75 20.125 43.75H18.5625C18.3553 43.75 18.1566 43.8323 18.0101 43.9788C17.8636 44.1253 17.7812 44.324 17.7812 44.5312C17.7812 44.7385 17.8636 44.9372 18.0101 45.0837C18.1566 45.2302 18.3553 45.3125 18.5625 45.3125H20.125C20.7466 45.3125 21.3427 45.0656 21.7823 44.626C22.2218 44.1865 22.4688 43.5904 22.4688 42.9688C22.4688 42.3471 22.2218 41.751 21.7823 41.3115C21.3427 40.8719 20.7466 40.625 20.125 40.625C19.9178 40.625 19.7191 40.5427 19.5726 40.3962C19.4261 40.2497 19.3438 40.051 19.3438 39.8438C19.3438 39.6365 19.4261 39.4378 19.5726 39.2913C19.7191 39.1448 19.9178 39.0625 20.125 39.0625Z" fill="black"/>
<path d="M20.125 21.875C20.5565 21.875 20.9062 21.5252 20.9062 21.0938C20.9062 20.6623 20.5565 20.3125 20.125 20.3125C19.6935 20.3125 19.3438 20.6623 19.3438 21.0938C19.3438 21.5252 19.6935 21.875 20.125 21.875Z" fill="black"/>
<path d="M13.875 21.875C14.3065 21.875 14.6562 21.5252 14.6562 21.0938C14.6562 20.6623 14.3065 20.3125 13.875 20.3125C13.4435 20.3125 13.0938 20.6623 13.0938 21.0938C13.0938 21.5252 13.4435 21.875 13.875 21.875Z" fill="black"/>
<path d="M17 21.875C17.4315 21.875 17.7812 21.5252 17.7812 21.0938C17.7812 20.6623 17.4315 20.3125 17 20.3125C16.5685 20.3125 16.2188 20.6623 16.2188 21.0938C16.2188 21.5252 16.5685 21.875 17 21.875Z" fill="black"/>
<path d="M6.84375 21.875C7.05088 21.8752 7.24946 21.9576 7.39592 22.1041C7.54238 22.2505 7.62477 22.4491 7.625 22.6562V25.7812C7.62572 26.4026 7.87289 26.9984 8.31227 27.4377C8.75165 27.8771 9.34737 28.1243 9.96875 28.125C10.176 28.125 10.3747 28.0427 10.5212 27.8962C10.6677 27.7497 10.75 27.551 10.75 27.3438C10.75 27.1365 10.6677 26.9378 10.5212 26.7913C10.3747 26.6448 10.176 26.5625 9.96875 26.5625C9.76162 26.5623 9.56304 26.4799 9.41658 26.3334C9.27012 26.187 9.18773 25.9884 9.1875 25.7812V22.6562C9.18803 22.0794 8.97491 21.5228 8.58926 21.0938C8.97491 20.6647 9.18803 20.1081 9.1875 19.5312V16.4062C9.18773 16.1991 9.27012 16.0005 9.41658 15.8541C9.56304 15.7076 9.76162 15.6252 9.96875 15.625C10.176 15.625 10.3747 15.5427 10.5212 15.3962C10.6677 15.2497 10.75 15.051 10.75 14.8438C10.75 14.6365 10.6677 14.4378 10.5212 14.2913C10.3747 14.1448 10.176 14.0625 9.96875 14.0625C9.34737 14.0632 8.75165 14.3104 8.31227 14.7498C7.87289 15.1891 7.62572 15.7849 7.625 16.4062V19.5312C7.62477 19.7384 7.54238 19.937 7.39592 20.0834C7.24946 20.2299 7.05088 20.3123 6.84375 20.3125C6.63655 20.3125 6.43784 20.3948 6.29132 20.5413C6.14481 20.6878 6.0625 20.8865 6.0625 21.0938C6.0625 21.301 6.14481 21.4997 6.29132 21.6462C6.43784 21.7927 6.63655 21.875 6.84375 21.875Z" fill="black"/>
<path d="M24.8125 25.7812C24.8123 25.9884 24.7299 26.187 24.5834 26.3334C24.437 26.4799 24.2384 26.5623 24.0312 26.5625C23.824 26.5625 23.6253 26.6448 23.4788 26.7913C23.3323 26.9378 23.25 27.1365 23.25 27.3438C23.25 27.551 23.3323 27.7497 23.4788 27.8962C23.6253 28.0427 23.824 28.125 24.0312 28.125C24.6526 28.1243 25.2484 27.8771 25.6877 27.4377C26.1271 26.9984 26.3743 26.4026 26.375 25.7812V22.6562C26.3752 22.4491 26.4576 22.2505 26.6041 22.1041C26.7505 21.9576 26.9491 21.8752 27.1562 21.875C27.3635 21.875 27.5622 21.7927 27.7087 21.6462C27.8552 21.4997 27.9375 21.301 27.9375 21.0938C27.9375 20.8865 27.8552 20.6878 27.7087 20.5413C27.5622 20.3948 27.3635 20.3125 27.1562 20.3125C26.9491 20.3123 26.7505 20.2299 26.6041 20.0834C26.4576 19.937 26.3752 19.7384 26.375 19.5312V16.4062C26.3743 15.7849 26.1271 15.1891 25.6877 14.7498C25.2484 14.3104 24.6526 14.0632 24.0312 14.0625C23.824 14.0625 23.6253 14.1448 23.4788 14.2913C23.3323 14.4378 23.25 14.6365 23.25 14.8438C23.25 15.051 23.3323 15.2497 23.4788 15.3962C23.6253 15.5427 23.824 15.625 24.0312 15.625C24.2384 15.6252 24.437 15.7076 24.5834 15.8541C24.7299 16.0005 24.8123 16.1991 24.8125 16.4062V19.5312C24.812 20.1081 25.0251 20.6647 25.4107 21.0938C25.0251 21.5228 24.812 22.0794 24.8125 22.6562V25.7812Z" fill="black"/>
</g>
<defs>
<clipPath id="clip0">
<rect width="42" height="50" fill="white"/>
</clipPath>
</defs>
</svg>
