<svg width="25" height="25" viewBox="0 0 25 25" fill="none" xmlns="http://www.w3.org/2000/svg">
<path d="M25 0.525182C25 0.519768 25 0.514955 24.9989 0.509541C24.9979 0.504127 24.9975 0.490591 24.997 0.481267C24.9947 0.439505 24.9888 0.398301 24.9795 0.358544C24.9783 0.35313 24.9795 0.347415 24.9772 0.342C24.9749 0.336586 24.9751 0.337488 24.9745 0.335082C24.9624 0.291388 24.9463 0.250209 24.9266 0.21266C24.9221 0.204238 24.9175 0.196718 24.9127 0.188597C24.8935 0.155432 24.8715 0.125734 24.8473 0.100164C24.8447 0.0974566 24.8426 0.0941479 24.8401 0.0917416C24.813 0.066281 24.7836 0.0460529 24.7527 0.0315836C24.7456 0.0279741 24.7384 0.0249657 24.7316 0.0219578C24.6992 0.00806609 24.6655 0.000676092 24.6316 0H0.368367C0.33448 0.000676092 0.300823 0.00806609 0.268363 0.0219578C0.260979 0.0249657 0.254017 0.0279741 0.247266 0.0315836C0.216416 0.0460529 0.187046 0.066281 0.159921 0.0917416C0.157389 0.0941479 0.155279 0.0974566 0.152748 0.100164C0.128502 0.125734 0.106538 0.155432 0.0873447 0.188597C0.0827032 0.196718 0.0778507 0.204238 0.0734202 0.21266C0.0536652 0.250209 0.0375557 0.291388 0.0255282 0.335082C0.0255282 0.337488 0.0234185 0.339594 0.0227855 0.342C0.0221526 0.344407 0.0217306 0.35313 0.0204648 0.358544C0.0111916 0.398301 0.00531225 0.439505 0.00295367 0.481267C0.00295367 0.490892 0.00105481 0.500217 0.00105481 0.509541C0.00105481 0.518866 0 0.519768 0 0.525182V24.4727C0 24.4796 0.00126586 24.4862 0.00147684 24.4932C0.00209238 24.5121 0.00343056 24.531 0.00548542 24.5497C0.00717324 24.5651 0.00865008 24.5798 0.0111818 24.5954C0.0144382 24.6137 0.0183822 24.6316 0.0229965 24.6493C0.0265831 24.6634 0.0299587 24.6776 0.0343893 24.6911C0.0402398 24.7088 0.0467907 24.7261 0.0540103 24.7428C0.0590737 24.7549 0.0641372 24.7672 0.0698335 24.7786C0.0780133 24.7946 0.0868181 24.8098 0.0962057 24.8243C0.103168 24.8352 0.11013 24.846 0.117303 24.8562C0.121734 24.8619 0.12511 24.8689 0.129751 24.8746C0.134393 24.8803 0.137346 24.8797 0.140722 24.8836C0.169525 24.9167 0.201677 24.9433 0.236084 24.9627C0.243468 24.9669 0.251063 24.9693 0.258658 24.9726C0.291941 24.9881 0.326615 24.9968 0.361616 24.9982C0.364147 24.9982 0.366468 25 0.369 25H0.373852H24.6261H24.631C24.6335 25 24.6359 24.9982 24.6382 24.9982C24.6732 24.9968 24.708 24.9882 24.7413 24.9726C24.7487 24.9693 24.7561 24.9669 24.7624 24.9627C24.7969 24.9434 24.8291 24.9167 24.858 24.8836C24.8614 24.8797 24.8656 24.8785 24.869 24.8746C24.8724 24.8707 24.877 24.8619 24.8814 24.8562C24.889 24.846 24.896 24.8355 24.9025 24.8243C24.9119 24.8098 24.9207 24.7946 24.9289 24.7786C24.9346 24.7672 24.9397 24.7552 24.9447 24.7428C24.9519 24.7261 24.9585 24.7088 24.9643 24.6911C24.9688 24.6776 24.9722 24.6634 24.9757 24.6493C24.9804 24.6316 24.9843 24.6137 24.9876 24.5954C24.9901 24.5804 24.9916 24.5654 24.9932 24.5497C24.9953 24.531 24.9966 24.5121 24.9973 24.4932C24.9973 24.4862 24.9987 24.4796 24.9987 24.4727L25 0.525182ZM8.65979 11.391L12.2586 15.8057C12.3257 15.8878 12.4111 15.933 12.4995 15.933C12.5878 15.933 12.6733 15.8878 12.7403 15.8057L16.3394 11.391L23.8316 23.9463H1.16776L8.65979 11.391ZM0.737578 23.0424V1.6727L8.1007 10.7043L0.737578 23.0424ZM16.8985 10.7043L24.2616 1.6727V23.0424L16.8985 10.7043ZM23.6352 1.05157L16.1444 10.2411C16.1432 10.2426 16.1415 10.2435 16.1402 10.2453C16.1389 10.2471 16.1377 10.2495 16.1362 10.2513L12.4996 14.7123L8.86296 10.2513C8.86148 10.2495 8.86043 10.2471 8.85895 10.2453L8.85473 10.2411L1.36355 1.05157H23.6352Z" fill="white"/>
</svg>
