<svg width="100" height="100" viewBox="0 0 100 100" fill="none" xmlns="http://www.w3.org/2000/svg">
<path d="M50 0C22.4305 0 0 22.4305 0 50C0 77.5695 22.4305 100 50 100C77.5695 100 100 77.5695 100 50C100 22.4305 77.5695 0 50 0ZM50 93.75C25.8758 93.75 6.25003 74.1242 6.25003 50C6.25003 25.8758 25.8758 6.25003 50 6.25003C74.1242 6.25003 93.75 25.8758 93.75 50C93.75 74.1242 74.1242 93.75 50 93.75V93.75Z" fill="#999292"/>
<path d="M32.3778 38.8535H69.8777V45.1035H32.3778V38.8535Z" fill="#999292"/>
<path d="M32.3778 58.2803H69.8777V64.5303H32.3778V58.2803Z" fill="#999292"/>
</svg>
