<svg width="50" height="50" viewBox="0 0 50 50" fill="none" xmlns="http://www.w3.org/2000/svg">
<path d="M24.9128 6.35352C25.456 6.35352 25.8963 5.91318 25.8963 5.37002V0.983496C25.8963 0.440332 25.456 0 24.9128 0C24.3697 0 23.9293 0.440332 23.9293 0.983496V5.37002C23.9294 5.91318 24.3697 6.35352 24.9128 6.35352Z" fill="black"/>
<path d="M48.9531 33.7876L47.2157 32.0551C46.5976 31.4378 45.7739 31.0978 44.8962 31.0978C44.3349 31.0978 43.7962 31.2374 43.3187 31.4991L40.0447 28.2289L40.2042 28.0697C41.5324 26.7388 41.5319 24.5762 40.2041 23.2498C39.7296 22.7745 39.1375 22.4575 38.4921 22.3241C38.5809 22.0173 38.6277 21.696 38.6277 21.3672C38.6277 20.4536 38.2728 19.597 37.6304 18.9573C37.1558 18.4819 36.5638 18.1649 35.9184 18.0315C36.0073 17.7247 36.0541 17.4036 36.0541 17.0746C36.0541 16.161 35.6992 15.3044 35.0557 14.6637C34.5698 14.1784 33.9724 13.8711 33.3452 13.7404C33.6807 12.5834 33.394 11.2818 32.4839 10.3701C31.7262 9.61566 30.6982 9.29144 29.7075 9.39652L23.2197 8.16849C22.2302 7.9808 20.9946 7.85668 20.2146 8.5681C20.1654 8.61302 20.1152 8.66468 20.0658 8.7222C18.8564 8.28138 17.4459 8.54388 16.4774 9.51127C15.8349 10.153 15.481 11.0092 15.481 11.9223C15.481 12.2512 15.5276 12.5724 15.6164 12.8792C14.9717 13.0125 14.3803 13.3291 13.9074 13.803C13.2636 14.4441 12.9087 15.2994 12.908 16.2114C12.9077 16.5411 12.9545 16.8633 13.0437 17.1709C12.3987 17.3039 11.807 17.62 11.3326 18.0938C10.6888 18.7369 10.3344 19.5936 10.3344 20.5062C10.3344 21.2052 10.543 21.8711 10.9298 22.4336C10.4415 22.5992 9.99421 22.8746 9.6197 23.2488C8.2906 24.5762 8.29011 26.7389 9.62058 28.0717L9.77947 28.2299L6.50505 31.4984C5.28816 30.9254 3.78884 31.1401 2.78464 32.143L1.04617 33.8766C0.427808 34.4942 0.0873779 35.318 0.0872803 36.1962C0.0872803 37.0745 0.427808 37.8985 1.04617 38.5161L3.2158 40.6831C3.60007 41.067 4.22283 41.0666 4.60662 40.6824C4.9905 40.2981 4.99011 39.6753 4.60583 39.2915L2.43621 37.1245C2.18992 36.8786 2.05427 36.5489 2.05427 36.1963C2.05427 35.8439 2.18992 35.5143 2.43562 35.2689L4.17419 33.5352C4.60857 33.1013 5.27341 33.0367 5.7783 33.3385C5.81384 33.3919 5.85496 33.4427 5.90203 33.4899C5.9863 33.5744 6.0825 33.6391 6.18464 33.6865L16.1547 43.6418C16.202 43.7451 16.2671 43.8422 16.3519 43.9272C16.4345 44.0099 16.5288 44.0739 16.6288 44.1209C16.8396 44.3593 16.9561 44.6638 16.9561 44.9886C16.9561 45.3412 16.8205 45.6707 16.5742 45.9167L14.8374 47.6515C14.3242 48.1624 13.4894 48.1623 12.9778 47.6531L10.8082 45.4832C10.4241 45.0992 9.80144 45.0992 9.41736 45.4832C9.03328 45.8673 9.03328 46.49 9.41736 46.8741L11.5885 49.0454C12.2276 49.6819 13.0669 49.9999 13.9065 49.9999C14.7464 49.9999 15.5866 49.6814 16.2264 49.0444L17.9643 47.3085C18.5827 46.6909 18.9232 45.867 18.9232 44.9886C18.9232 44.3618 18.7489 43.7631 18.4248 43.2469L22.1099 39.5662C22.1138 39.5622 22.1177 39.5582 22.1218 39.5542C22.5437 39.118 23.7188 39.1996 24.8552 39.2786C25.6627 39.3347 26.5629 39.3971 27.4424 39.2957L31.4779 43.3265C31.2165 43.8032 31.0769 44.3412 31.0769 44.9016C31.0769 45.779 31.4175 46.6024 32.0358 47.2201L33.7738 48.9559C34.3918 49.5732 35.2155 49.9132 36.0932 49.9132C36.9709 49.9132 37.7946 49.5733 38.4127 48.9559L48.9538 38.4276C49.5721 37.81 49.9127 36.9862 49.9127 36.1078C49.9126 35.2296 49.572 34.4058 48.9531 33.7876ZM22.8535 10.1011L27.1198 10.9086L24.5662 13.4613C24.1712 13.2714 23.6298 12.9173 23.0358 12.3492C22.2228 11.5714 21.6413 10.6735 21.5884 10.1134C21.5883 10.1131 21.5883 10.1128 21.5883 10.1125C21.5883 10.1124 21.5882 10.1123 21.5882 10.1122C21.5844 10.072 21.5834 10.0399 21.5839 10.0154C21.7125 9.98412 22.0541 9.94945 22.8535 10.1011ZM17.8674 10.903C18.3656 10.4052 19.1396 10.3478 19.7026 10.729C20.0217 12.0667 21.1628 13.2791 21.6761 13.7703C22.0566 14.1344 23.2774 15.2259 24.5096 15.5259C24.6763 15.7649 24.7671 16.0497 24.7671 16.3503C24.7671 16.7375 24.6181 17.0995 24.3468 17.3706C24.0761 17.6417 23.7136 17.791 23.3257 17.791C22.9377 17.791 22.5751 17.6417 22.3032 17.3694L22.3031 17.3693L22.3026 17.3688L17.8673 12.9414C17.5969 12.6714 17.4479 12.3094 17.4479 11.9223C17.448 11.5351 17.5969 11.1731 17.8674 10.903ZM15.2974 15.1947C15.568 14.9237 15.9302 14.7744 16.3176 14.7744C16.7053 14.7744 17.0687 14.924 17.3411 15.196L20.9126 18.7604C21.475 19.3237 21.475 20.2403 20.9145 20.8016C20.6425 21.0726 20.2786 21.2218 19.89 21.2218C19.5014 21.2218 19.1376 21.0726 18.8667 20.8028L18.8666 20.8027L16.1571 18.0938C16.1529 18.0896 16.1483 18.0857 16.144 18.0814L15.2964 17.2341C15.0244 16.9624 14.8747 16.5997 14.875 16.2128C14.8754 15.8272 15.0246 15.4663 15.2974 15.1947ZM12.7226 19.4855C12.9934 19.2151 13.3564 19.0661 13.7449 19.0661C14.1302 19.0661 14.49 19.2129 14.7596 19.4786L17.4774 22.1952C17.7484 22.4651 17.8977 22.8267 17.8977 23.2134C17.8977 23.6 17.7484 23.9617 17.4763 24.2327C17.2056 24.503 16.843 24.6519 16.4552 24.6519C16.0669 24.6519 15.7031 24.5026 15.432 24.2327L14.4468 23.2486C14.4466 23.2483 14.4463 23.2481 14.4461 23.2479L12.7227 21.5266C12.4511 21.2552 12.3014 20.8927 12.3014 20.506C12.3014 20.1194 12.451 19.7568 12.7226 19.4855ZM11.0097 24.6404C11.2817 24.3687 11.6452 24.2191 12.0332 24.2191C12.4211 24.2191 12.7844 24.3686 13.0563 24.6401L14.0429 25.6255C14.314 25.8954 14.4633 26.2571 14.4633 26.6438C14.4633 27.0305 14.3139 27.392 14.0409 27.6641C13.7703 27.9351 13.4077 28.0844 13.0198 28.0844C12.6318 28.0844 12.2692 27.9352 11.9967 27.6621L11.8731 27.5391C11.8715 27.5374 11.8702 27.5357 11.8686 27.5341C11.8668 27.5324 11.8648 27.5308 11.863 27.529L11.0107 26.6801C10.4483 26.1165 10.4478 25.2016 11.0097 24.6404ZM31.0521 35.8179C30.6682 35.4335 30.0455 35.4332 29.6613 35.817L28.7863 36.691C27.9549 37.5224 26.4483 37.4177 24.9914 37.3166C23.4093 37.2067 21.7732 37.0932 20.7145 38.1801L17.092 41.7983L8.03308 32.7527L11.2389 29.5526C11.7688 29.8774 12.3802 30.0515 13.02 30.0515C13.934 30.0515 14.791 29.6972 15.4311 29.0559C16.0756 28.4141 16.4305 27.5576 16.4305 26.6439C16.4305 26.6354 16.43 26.627 16.43 26.6185C16.4385 26.6186 16.4469 26.6191 16.4554 26.6191C17.3681 26.6191 18.2245 26.2659 18.8655 25.6256C19.5099 24.9838 19.8649 24.1272 19.8649 23.2136C19.8649 23.2051 19.8643 23.1967 19.8643 23.1882C19.8729 23.1882 19.8815 23.1888 19.8902 23.1888C20.8026 23.1888 21.6594 22.836 22.3048 22.1933C22.9747 21.5223 23.306 20.6389 23.2997 19.7574C23.3085 19.7575 23.3173 19.7579 23.326 19.7579C24.24 19.7578 25.0969 19.4036 25.7381 18.7614C26.3805 18.1197 26.7344 17.2634 26.7344 16.3503C26.7344 15.7118 26.5608 15.1013 26.2371 14.5725L29.0469 11.7638C29.2563 11.5553 29.5145 11.4244 29.7851 11.3704C29.8144 11.3673 29.8433 11.3626 29.8719 11.357C30.3061 11.2971 30.7621 11.4311 31.0941 11.7618C31.6565 12.3251 31.6565 13.2417 31.0962 13.8031L30.2404 14.6553C30.2376 14.6581 30.2345 14.6607 30.2317 14.6635L29.2461 15.6475C28.8617 16.0313 28.8613 16.654 29.2452 17.0383C29.6292 17.4227 30.2518 17.423 30.636 17.0392L31.4952 16.1812C31.4954 16.181 31.4956 16.1808 31.4958 16.1806L31.6257 16.0512C32.1896 15.4924 33.1033 15.4936 33.6667 16.0562C33.9378 16.3261 34.0871 16.6877 34.0871 17.0744C34.0871 17.4611 33.9378 17.8227 33.6645 18.0948L32.8039 18.9572C32.8038 18.9573 32.8037 18.9574 32.8036 18.9576L31.818 19.9391C31.4332 20.3224 31.4319 20.9452 31.8152 21.3299C32.1985 21.7148 32.8212 21.716 33.206 21.3328L34.1961 20.3467C34.4667 20.0756 34.8293 19.9264 35.2172 19.9264C35.6051 19.9264 35.9678 20.0756 36.2404 20.3487C36.5115 20.6187 36.6607 20.9803 36.6607 21.367C36.6607 21.7536 36.5115 22.1153 36.2388 22.3868L34.523 24.1033C34.139 24.4874 34.1391 25.1101 34.5232 25.4941C34.7153 25.6861 34.9669 25.782 35.2185 25.782C35.4703 25.782 35.722 25.6859 35.914 25.4938L36.755 24.6526C36.7597 24.648 36.7649 24.644 36.7697 24.6392C37.0403 24.3681 37.4029 24.2189 37.7908 24.2189C38.1788 24.2189 38.5414 24.3681 38.813 24.6402C39.3748 25.2014 39.3743 26.1164 38.813 26.6787L37.958 27.5328C37.9577 27.533 37.9573 27.5333 37.957 27.5336C37.9567 27.5339 37.9564 27.5343 37.9561 27.5346L36.5991 28.89C36.2148 29.2739 36.2144 29.8966 36.5982 30.2809C36.7903 30.4732 37.0423 30.5694 37.2941 30.5694C37.5456 30.5694 37.7971 30.4735 37.9891 30.2818L38.6529 29.6188L41.8343 32.7964L32.7761 41.8435L29.5306 38.6019C29.7569 38.4564 29.9734 38.2853 30.1766 38.0821L31.0511 37.2086C31.4356 36.8249 31.436 36.2022 31.0521 35.8179ZM47.5636 37.0359L37.0225 47.5642C36.776 47.8105 36.4459 47.9461 36.0931 47.9461C35.7404 47.9461 35.4103 47.8105 35.1636 47.5641L33.4257 45.8283C33.1794 45.5824 33.0437 45.2533 33.0437 44.9016C33.0437 44.55 33.1794 44.2209 33.4257 43.9749L43.9668 33.4466C44.2135 33.2002 44.5434 33.0646 44.8963 33.0646C45.249 33.0646 45.5791 33.2002 45.8263 33.4472L47.5637 35.1797C47.81 35.4257 47.9457 35.7552 47.9457 36.1078C47.9456 36.4604 47.8099 36.79 47.5636 37.0359Z" fill="black"/>
<path d="M11.8532 5.52443C12.0452 5.71603 12.2966 5.81173 12.548 5.81173C12.7999 5.81173 13.052 5.71544 13.2441 5.52296C13.6278 5.13849 13.6272 4.51583 13.2427 4.13214L9.65891 0.555481C9.27454 0.17179 8.65178 0.172278 8.26809 0.556849C7.8844 0.941321 7.88499 1.56398 8.26946 1.94767L11.8532 5.52443Z" fill="black"/>
<path d="M37.2774 5.81169C37.5289 5.81169 37.7804 5.7158 37.9724 5.5241L41.5535 1.94734C41.9378 1.56355 41.9382 0.940796 41.5543 0.556519C41.1705 0.172241 40.5478 0.171851 40.1635 0.555737L36.5824 4.1325C36.1981 4.51628 36.1977 5.13904 36.5816 5.52332C36.7737 5.7156 37.0256 5.81169 37.2774 5.81169Z" fill="black"/>
<path d="M6.13468 42.3051C5.75392 42.6924 5.75919 43.3152 6.14659 43.6959L6.14943 43.6987C6.34054 43.8866 6.58868 43.9801 6.83673 43.9801C7.09132 43.9801 7.34591 43.8816 7.53878 43.6854C7.91954 43.2981 7.9128 42.674 7.5255 42.2932C7.13829 41.9125 6.51564 41.9178 6.13468 42.3051Z" fill="black"/>
<path d="M33.4575 34.401C33.6072 34.401 33.7589 34.367 33.9014 34.2952C34.3863 34.0506 34.5812 33.4591 34.3366 32.9742C34.092 32.4892 33.5005 32.2943 33.0157 32.5389L33.0102 32.5417C32.5252 32.7863 32.3331 33.3763 32.5777 33.8613C32.7503 34.2039 33.0976 34.401 33.4575 34.401Z" fill="black"/>
</svg>
